<svg width="100" height="30" viewBox="0 0 100 30" fill="none" xmlns="http://www.w3.org/2000/svg">
<g clip-path="url(#clip0)">
<path d="M95.9686 29.6799H4.08477C2.17558 29.6799 0.621582 28.1215 0.621582 26.2138V3.8477C0.621582 1.93926 2.17558 0.386719 4.08477 0.386719H95.9686C97.8771 0.386719 99.486 1.93926 99.486 3.8477V26.2138C99.486 28.1215 97.8771 29.6799 95.9686 29.6799Z" fill="#A6A6A6"/>
<path d="M98.777 26.2146C98.777 27.7642 97.5218 29.0194 95.9693 29.0194H4.08473C2.53292 29.0194 1.27332 27.7642 1.27332 26.2146V3.84706C1.27332 2.29818 2.53292 1.03857 4.08473 1.03857H95.9686C97.5218 1.03857 98.7763 2.29818 98.7763 3.84706L98.777 26.2146Z" fill="black"/>
<path d="M22.6852 14.8751C22.664 12.5148 24.6178 11.3665 24.7072 11.3131C23.6006 9.69975 21.8855 9.47932 21.2828 9.46174C19.8423 9.31015 18.445 10.3237 17.7112 10.3237C16.9628 10.3237 15.8328 9.47639 14.615 9.50129C13.0478 9.52546 11.5817 10.4328 10.7776 11.8418C9.1181 14.7147 10.3557 18.9366 11.9456 21.2588C12.7409 22.3961 13.6703 23.666 14.8867 23.6213C16.0767 23.5723 16.5212 22.8626 17.9573 22.8626C19.3802 22.8626 19.7977 23.6213 21.0382 23.5928C22.3154 23.5723 23.1195 22.4503 23.887 21.3028C24.806 19.9992 25.1751 18.7155 25.1898 18.6495C25.1598 18.6393 22.7094 17.7041 22.6852 14.8751Z" fill="white"/>
<path d="M20.3418 7.93395C20.9818 7.13351 21.4197 6.04454 21.2982 4.93945C20.3718 4.98046 19.2132 5.58024 18.5461 6.3631C17.9558 7.05295 17.4286 8.18367 17.5648 9.24701C18.6054 9.32464 19.6739 8.72193 20.3418 7.93395Z" fill="white"/>
<path d="M39.9074 23.4577H38.2443L37.3333 20.5951H34.1667L33.2989 23.4577H31.6797L34.817 13.7119H36.7547L39.9074 23.4577ZM37.0586 19.3941L36.2348 16.8492C36.1476 16.5892 35.9843 15.977 35.7434 15.0133H35.7141C35.6182 15.4278 35.4636 16.04 35.2513 16.8492L34.442 19.3941H37.0586Z" fill="white"/>
<path d="M47.9755 19.8577C47.9755 21.0529 47.6525 21.9976 47.0066 22.6911C46.428 23.3084 45.7096 23.6167 44.8521 23.6167C43.9264 23.6167 43.2615 23.2843 42.8565 22.6193H42.8272V26.3212H41.2659V18.7438C41.2659 17.9925 41.2461 17.2213 41.208 16.4304H42.5811L42.6683 17.5443H42.6976C43.2183 16.705 44.0084 16.2861 45.0688 16.2861C45.8978 16.2861 46.5899 16.6135 47.1435 17.2689C47.6986 17.9251 47.9755 18.7878 47.9755 19.8577ZM46.3848 19.9148C46.3848 19.2308 46.2311 18.6669 45.922 18.2231C45.5844 17.7603 45.1311 17.5289 44.5628 17.5289C44.1776 17.5289 43.8275 17.6578 43.5148 17.9119C43.2014 18.1682 42.9964 18.5029 42.9004 18.9174C42.8521 19.1107 42.8279 19.2689 42.8279 19.3934V20.5651C42.8279 21.0763 42.9846 21.5076 43.2981 21.8599C43.6115 22.2121 44.0187 22.3879 44.5196 22.3879C45.1077 22.3879 45.5654 22.1609 45.8927 21.7083C46.2208 21.255 46.3848 20.6574 46.3848 19.9148Z" fill="white"/>
<path d="M56.0582 19.8577C56.0582 21.0529 55.7353 21.9976 55.0886 22.6911C54.5108 23.3084 53.7924 23.6167 52.9348 23.6167C52.0092 23.6167 51.3442 23.2843 50.94 22.6193H50.9107V26.3212H49.3494V18.7438C49.3494 17.9925 49.3296 17.2213 49.2915 16.4304H50.6646L50.7518 17.5443H50.7811C51.301 16.705 52.0912 16.2861 53.1523 16.2861C53.9806 16.2861 54.6727 16.6135 55.2278 17.2689C55.7807 17.9251 56.0582 18.7878 56.0582 19.8577ZM54.4676 19.9148C54.4676 19.2308 54.3131 18.6669 54.004 18.2231C53.6664 17.7603 53.2146 17.5289 52.6456 17.5289C52.2596 17.5289 51.9103 17.6578 51.5969 17.9119C51.2834 18.1682 51.0791 18.5029 50.9832 18.9174C50.9356 19.1107 50.9107 19.2689 50.9107 19.3934V20.5651C50.9107 21.0763 51.0674 21.5076 51.3794 21.8599C51.6928 22.2114 52.1 22.3879 52.6024 22.3879C53.1904 22.3879 53.6481 22.1609 53.9755 21.7083C54.3036 21.255 54.4676 20.6574 54.4676 19.9148Z" fill="white"/>
<path d="M65.0951 20.7249C65.0951 21.5539 64.8073 22.2284 64.2294 22.7491C63.5945 23.3181 62.7106 23.6022 61.5748 23.6022C60.5261 23.6022 59.6853 23.4001 59.049 22.9951L59.4107 21.6938C60.0962 22.1083 60.8483 22.3163 61.6678 22.3163C62.2558 22.3163 62.7135 22.183 63.0423 21.9179C63.3697 21.6528 63.533 21.2969 63.533 20.8531C63.533 20.4576 63.3983 20.1244 63.128 19.8542C62.8593 19.584 62.4103 19.3328 61.7835 19.1006C60.0771 18.4642 59.2247 17.532 59.2247 16.306C59.2247 15.5049 59.5235 14.848 60.1218 14.3368C60.7179 13.8249 61.5132 13.5693 62.5077 13.5693C63.3946 13.5693 64.1313 13.7239 64.7194 14.0322L64.329 15.305C63.7798 15.0062 63.1588 14.8568 62.4638 14.8568C61.9146 14.8568 61.4854 14.9923 61.1778 15.2617C60.9179 15.5027 60.7875 15.7963 60.7875 16.1442C60.7875 16.5294 60.9362 16.848 61.235 17.0984C61.4949 17.3298 61.9673 17.5803 62.6527 17.8505C63.4913 18.1881 64.1072 18.5829 64.5033 19.0354C64.8981 19.4866 65.0951 20.0512 65.0951 20.7249Z" fill="white"/>
<path d="M70.2573 17.6024H68.5363V21.0143C68.5363 21.8821 68.8395 22.3157 69.4473 22.3157C69.7263 22.3157 69.9578 22.2915 70.1408 22.2432L70.184 23.4288C69.8765 23.5438 69.4715 23.6017 68.9698 23.6017C68.3532 23.6017 67.8713 23.4134 67.5235 23.0378C67.1771 22.6613 67.0028 22.0301 67.0028 21.1432V17.6009H65.9775V16.4292H67.0028V15.1425L68.5363 14.6797V16.4292H70.2573V17.6024Z" fill="white"/>
<path d="M78.0222 19.8865C78.0222 20.9667 77.7132 21.8535 77.0965 22.5471C76.4499 23.2611 75.5916 23.617 74.5217 23.617C73.4905 23.617 72.6696 23.275 72.0574 22.591C71.4451 21.907 71.139 21.0436 71.139 20.0029C71.139 18.914 71.4539 18.022 72.0859 17.3285C72.7165 16.6342 73.5674 16.2871 74.6374 16.2871C75.6685 16.2871 76.4982 16.6291 77.1244 17.3138C77.7234 17.9781 78.0222 18.8356 78.0222 19.8865ZM76.4023 19.937C76.4023 19.2889 76.2639 18.7331 75.9834 18.2695C75.656 17.7086 75.1881 17.4288 74.5817 17.4288C73.9541 17.4288 73.4774 17.7093 73.15 18.2695C72.8695 18.7338 72.7311 19.2984 72.7311 19.9663C72.7311 20.6144 72.8695 21.1703 73.15 21.6331C73.4876 22.1941 73.9592 22.4738 74.5678 22.4738C75.1639 22.4738 75.6319 22.1882 75.9695 21.6185C76.2573 21.1461 76.4023 20.5844 76.4023 19.937Z" fill="white"/>
<path d="M83.0973 17.8035C82.9428 17.775 82.778 17.7603 82.6052 17.7603C82.0559 17.7603 81.6312 17.9676 81.3324 18.3828C81.0724 18.749 80.9421 19.2118 80.9421 19.7706V23.4578H79.3815L79.3961 18.6435C79.3961 17.8335 79.3763 17.0961 79.3375 16.4311H80.6975L80.7546 17.7757H80.7978C80.9626 17.3136 81.2225 16.9416 81.5785 16.6625C81.9263 16.4114 82.302 16.2861 82.707 16.2861C82.8512 16.2861 82.9816 16.2964 83.0973 16.3147V17.8035Z" fill="white"/>
<path d="M90.08 19.6116C90.08 19.8914 90.0617 20.1272 90.0229 20.3198H85.3389C85.3572 21.014 85.5835 21.545 86.0185 21.9111C86.4132 22.2385 86.9237 22.4025 87.5506 22.4025C88.2441 22.4025 88.8768 22.292 89.4458 22.0701L89.6904 23.1539C89.0255 23.4439 88.2404 23.5882 87.3345 23.5882C86.2448 23.5882 85.3895 23.2674 84.767 22.6266C84.146 21.9858 83.8347 21.1254 83.8347 20.0459C83.8347 18.9862 84.124 18.1038 84.7033 17.4C85.3096 16.6486 86.1291 16.2729 87.1602 16.2729C88.173 16.2729 88.9398 16.6486 89.4605 17.4C89.8728 17.9969 90.08 18.735 90.08 19.6116ZM88.5912 19.2067C88.6014 18.7438 88.4997 18.344 88.288 18.0064C88.0178 17.5721 87.6026 17.3553 87.0438 17.3553C86.5334 17.3553 86.1181 17.567 85.801 17.9917C85.541 18.3293 85.3865 18.7343 85.3389 19.2059H88.5912V19.2067Z" fill="white"/>
<path d="M36.5423 7.71675C36.5423 8.5787 36.2838 9.22754 35.7675 9.66328C35.2893 10.0653 34.6097 10.2667 33.7295 10.2667C33.293 10.2667 32.9195 10.2477 32.6068 10.2096V5.49999C33.0147 5.43408 33.4541 5.40039 33.9287 5.40039C34.7672 5.40039 35.3992 5.58274 35.8254 5.94744C36.3029 6.35974 36.5423 6.94927 36.5423 7.71675ZM35.7331 7.73798C35.7331 7.17922 35.5852 6.7508 35.2893 6.45201C34.9935 6.15396 34.5614 6.00456 33.9924 6.00456C33.7507 6.00456 33.5449 6.02067 33.3743 6.05436V9.63472C33.4688 9.64936 33.6416 9.65595 33.8928 9.65595C34.4801 9.65595 34.9334 9.49264 35.2527 9.16603C35.572 8.83941 35.7331 8.36339 35.7331 7.73798Z" fill="white"/>
<path d="M40.8331 8.4695C40.8331 9.00044 40.6815 9.43544 40.3783 9.77671C40.0605 10.1275 39.6394 10.3025 39.1136 10.3025C38.6068 10.3025 38.2033 10.1348 37.9023 9.79795C37.602 9.46181 37.4519 9.03779 37.4519 8.52662C37.4519 7.99202 37.6064 7.55336 37.9169 7.21283C38.2274 6.87229 38.6449 6.70166 39.1707 6.70166C39.6775 6.70166 40.0846 6.86936 40.3929 7.2055C40.6859 7.53212 40.8331 7.95394 40.8331 8.4695ZM40.037 8.4944C40.037 8.17584 39.9682 7.90268 39.8312 7.67492C39.6701 7.39957 39.4409 7.26189 39.1429 7.26189C38.8345 7.26189 38.6002 7.39957 38.4391 7.67492C38.3014 7.90268 38.2333 8.18023 38.2333 8.50832C38.2333 8.82688 38.3021 9.10004 38.4391 9.32779C38.6053 9.60315 38.8367 9.74082 39.1355 9.74082C39.4285 9.74082 39.6584 9.60095 39.8239 9.32047C39.966 9.08832 40.037 8.81296 40.037 8.4944Z" fill="white"/>
<path d="M46.5863 6.77197L45.5061 10.2242H44.8031L44.3556 8.72509C44.2421 8.35087 44.1498 7.97885 44.0781 7.60976H44.0641C43.9975 7.9891 43.9052 8.36039 43.7866 8.72509L43.3113 10.2242H42.6002L41.5845 6.77197H42.3732L42.7635 8.41312C42.858 8.80126 42.9356 9.17108 42.9979 9.52113H43.0118C43.0689 9.2326 43.1634 8.86497 43.2967 8.42044L43.7866 6.77271H44.412L44.8814 8.38529C44.9949 8.77855 45.0872 9.15717 45.1582 9.52187H45.1795C45.2315 9.16669 45.3098 8.78807 45.4138 8.38529L45.8327 6.77271H46.5863V6.77197Z" fill="white"/>
<path d="M50.5649 10.2244H49.7974V8.24712C49.7974 7.63782 49.566 7.33317 49.1017 7.33317C48.874 7.33317 48.6902 7.41666 48.5474 7.58436C48.406 7.75206 48.3342 7.94979 48.3342 8.17608V10.2237H47.5668V7.75865C47.5668 7.45547 47.5572 7.12665 47.5389 6.77074H48.2134L48.2493 7.31047H48.2705C48.3599 7.14277 48.4932 7.00436 48.6682 6.89377C48.8762 6.76488 49.1091 6.69971 49.3639 6.69971C49.6861 6.69971 49.9542 6.8037 50.1673 7.01241C50.4324 7.26799 50.5649 7.64954 50.5649 8.15631V10.2244Z" fill="white"/>
<path d="M52.6814 10.2242H51.9147V5.18799H52.6814V10.2242Z" fill="white"/>
<path d="M57.1999 8.4695C57.1999 9.00044 57.0483 9.43544 56.7451 9.77671C56.4273 10.1275 56.0055 10.3025 55.4804 10.3025C54.9729 10.3025 54.5694 10.1348 54.2691 9.79795C53.9689 9.46181 53.8187 9.03779 53.8187 8.52662C53.8187 7.99202 53.9732 7.55336 54.2838 7.21283C54.5943 6.87229 55.0117 6.70166 55.5368 6.70166C56.0443 6.70166 56.4507 6.86936 56.7598 7.2055C57.0527 7.53212 57.1999 7.95394 57.1999 8.4695ZM56.4031 8.4944C56.4031 8.17584 56.3343 7.90268 56.1973 7.67492C56.037 7.39957 55.807 7.26189 55.5097 7.26189C55.2006 7.26189 54.9663 7.39957 54.8059 7.67492C54.6682 7.90268 54.6001 8.18023 54.6001 8.50832C54.6001 8.82688 54.669 9.10004 54.8059 9.32779C54.9721 9.60315 55.2036 9.74082 55.5024 9.74082C55.7953 9.74082 56.0245 9.60095 56.19 9.32047C56.3328 9.08832 56.4031 8.81296 56.4031 8.4944Z" fill="white"/>
<path d="M60.9142 10.2242H60.2251L60.1679 9.82651H60.1467C59.9109 10.1436 59.5748 10.3025 59.1383 10.3025C58.8124 10.3025 58.5488 10.1978 58.3503 9.98982C58.1702 9.80087 58.0801 9.5658 58.0801 9.28678C58.0801 8.86496 58.2558 8.54347 58.6096 8.32084C58.9625 8.09821 59.4591 7.98909 60.0984 7.99422V7.92978C60.0984 7.475 59.8596 7.24798 59.3814 7.24798C59.0409 7.24798 58.7406 7.33366 58.4814 7.50356L58.3254 6.99972C58.6462 6.80126 59.0424 6.70166 59.5096 6.70166C60.4118 6.70166 60.8644 7.17767 60.8644 8.1297V9.40102C60.8644 9.74595 60.8812 10.0206 60.9142 10.2242ZM60.1174 9.03779V8.50539C59.2708 8.49074 58.8476 8.72289 58.8476 9.2011C58.8476 9.38125 58.8959 9.516 58.9948 9.60608C59.0936 9.69615 59.2196 9.74082 59.3697 9.74082C59.5381 9.74082 59.6956 9.68736 59.8391 9.58118C59.9834 9.47426 60.072 9.33878 60.105 9.17254C60.113 9.13519 60.1174 9.08978 60.1174 9.03779Z" fill="white"/>
<path d="M65.2752 10.2242H64.5941L64.5583 9.66984H64.537C64.3195 10.0917 63.949 10.3026 63.4283 10.3026C63.0123 10.3026 62.6659 10.1393 62.3913 9.81265C62.1167 9.48603 61.9797 9.06201 61.9797 8.54132C61.9797 7.98256 62.1284 7.52998 62.4272 7.18432C62.7165 6.86209 63.0709 6.70098 63.4927 6.70098C63.9563 6.70098 64.2807 6.85697 64.4653 7.16967H64.4799V5.18799H65.2481V9.29416C65.2481 9.6303 65.2569 9.94007 65.2752 10.2242ZM64.4799 8.76834V8.19273C64.4799 8.09314 64.4726 8.01258 64.4587 7.95107C64.4155 7.76652 64.3225 7.61126 64.1811 7.48604C64.0383 7.36081 63.8662 7.29783 63.6677 7.29783C63.3814 7.29783 63.1573 7.41134 62.9925 7.63909C62.8292 7.86685 62.7465 8.15758 62.7465 8.51276C62.7465 8.85403 62.8248 9.13085 62.9823 9.34395C63.1485 9.57098 63.3726 9.68449 63.6531 9.68449C63.905 9.68449 64.1064 9.59002 64.2595 9.40034C64.4074 9.22532 64.4799 9.01441 64.4799 8.76834Z" fill="white"/>
<path d="M71.8392 8.4695C71.8392 9.00044 71.6876 9.43544 71.3844 9.77671C71.0666 10.1275 70.6462 10.3025 70.1197 10.3025C69.6136 10.3025 69.2101 10.1348 68.9084 9.79795C68.6081 9.46181 68.458 9.03779 68.458 8.52662C68.458 7.99202 68.6125 7.55336 68.923 7.21283C69.2335 6.87229 69.651 6.70166 70.1775 6.70166C70.6836 6.70166 71.0915 6.86936 71.399 7.2055C71.692 7.53212 71.8392 7.95394 71.8392 8.4695ZM71.0439 8.4944C71.0439 8.17584 70.975 7.90268 70.8381 7.67492C70.6762 7.39957 70.4477 7.26189 70.149 7.26189C69.8414 7.26189 69.607 7.39957 69.4452 7.67492C69.3075 7.90268 69.2394 8.18023 69.2394 8.50832C69.2394 8.82688 69.3082 9.10004 69.4452 9.32779C69.6114 9.60315 69.8428 9.74082 70.1416 9.74082C70.4346 9.74082 70.6653 9.60095 70.8308 9.32047C70.9721 9.08832 71.0439 8.81296 71.0439 8.4944Z" fill="white"/>
<path d="M75.9658 10.2244H75.1991V8.24712C75.1991 7.63782 74.9676 7.33317 74.5026 7.33317C74.2749 7.33317 74.091 7.41666 73.949 7.58436C73.8069 7.75206 73.7359 7.94979 73.7359 8.17608V10.2237H72.9676V7.75865C72.9676 7.45547 72.9589 7.12665 72.9406 6.77074H73.6143L73.6502 7.31047H73.6714C73.7615 7.14277 73.8948 7.00436 74.0691 6.89377C74.2778 6.76488 74.5099 6.69971 74.7655 6.69971C75.087 6.69971 75.355 6.8037 75.5681 7.01241C75.834 7.26799 75.9658 7.64954 75.9658 8.15631V10.2244Z" fill="white"/>
<path d="M81.131 7.34674H80.2858V9.02377C80.2858 9.44999 80.436 9.6631 80.7333 9.6631C80.871 9.6631 80.9852 9.65138 81.0753 9.62721L81.0951 10.2094C80.9435 10.2665 80.7443 10.2951 80.499 10.2951C80.1958 10.2951 79.96 10.2028 79.7893 10.0183C79.618 9.83373 79.533 9.52322 79.533 9.08749V7.34674H79.0284V6.77186H79.533V6.13913L80.2851 5.91211V6.77113H81.1302V7.34674H81.131Z" fill="white"/>
<path d="M85.1938 10.2242H84.4256V8.26157C84.4256 7.64275 84.1942 7.33298 83.7306 7.33298C83.3747 7.33298 83.1316 7.5124 82.9983 7.87124C82.9756 7.94667 82.9624 8.03894 82.9624 8.14733V10.2235H82.1957V5.18799H82.9624V7.26853H82.9771C83.2187 6.88992 83.5651 6.70098 84.0141 6.70098C84.3319 6.70098 84.5948 6.80497 84.8035 7.01368C85.0635 7.27366 85.1938 7.66033 85.1938 8.1715V10.2242Z" fill="white"/>
<path d="M89.385 8.335C89.385 8.47267 89.3747 8.58838 89.3564 8.68285H87.0547C87.065 9.02412 87.1748 9.2841 87.3879 9.46425C87.5827 9.62536 87.8339 9.70592 88.1415 9.70592C88.482 9.70592 88.7925 9.65172 89.0723 9.54261L89.1924 10.0757C88.865 10.2178 88.4798 10.2889 88.0338 10.2889C87.4992 10.2889 87.0782 10.1314 86.7735 9.8165C86.4674 9.5016 86.3158 9.07904 86.3158 8.54884C86.3158 8.02815 86.4571 7.59461 86.742 7.24895C87.0393 6.87986 87.4414 6.69531 87.9489 6.69531C88.4454 6.69531 88.8226 6.87986 89.0774 7.24895C89.2832 7.54188 89.385 7.90439 89.385 8.335ZM88.6527 8.13654C88.6585 7.90878 88.608 7.71252 88.504 7.54701C88.3707 7.3339 88.1679 7.22698 87.8932 7.22698C87.6428 7.22698 87.4385 7.33097 87.2825 7.53969C87.155 7.70593 87.0796 7.90439 87.0547 8.13654H88.6527Z" fill="white"/>
</g>
<defs>
<clipPath id="clip0">
<rect width="100" height="30" fill="white"/>
</clipPath>
</defs>
</svg>
