<svg width="24" height="24" viewBox="0 0 24 24" fill="none" xmlns="http://www.w3.org/2000/svg">
<path d="M24 12C24 5.37271 18.6273 0 12 0C5.37271 0 0 5.37271 0 12C0 18.6273 5.37271 24 12 24C18.6273 24 24 18.6273 24 12ZM1.0909 12C1.0909 5.9749 5.9749 1.0909 12 1.0909C18.0251 1.0909 22.9091 5.9749 22.9091 12C22.9091 18.0251 18.0251 22.9091 12 22.9091C5.9749 22.9091 1.0909 18.0251 1.0909 12Z" fill="white"/>
<path d="M12.4604 18.926V11.9999H14.7458L15.1069 9.70463H12.4604V8.55373C12.4604 7.95483 12.6567 7.38318 13.5164 7.38318H15.2345V5.09229H12.7953C10.7444 5.09229 10.1847 6.44279 10.1847 8.31483V9.70357H8.77747V11.9999H10.1847V18.926H12.4604Z" fill="white"/>
</svg>
