<svg width="24" height="24" viewBox="0 0 24 24" fill="none" xmlns="http://www.w3.org/2000/svg">
<path d="M15.692 15.7745C15.692 14.5975 15.0102 14.0171 14.2597 13.3855L13.6455 12.9076C13.4578 12.7549 13.2026 12.5498 13.2026 12.1745C13.2026 11.7993 13.4589 11.5604 13.6804 11.3389C14.396 10.776 15.1128 10.1793 15.1128 8.9171C15.1128 7.62 14.2935 6.9382 13.9019 6.6142H14.959L16.0499 6H12.536C11.6153 6 10.4557 6.13639 9.48257 6.9382C8.74951 7.56875 8.39167 8.43929 8.39167 9.22365C8.39167 10.5535 9.41492 11.9018 11.2226 11.9018C11.3939 11.9018 11.5804 11.8844 11.7691 11.868C11.684 12.0731 11.5989 12.2433 11.5989 12.5335C11.5989 13.0615 11.8717 13.3865 12.1106 13.6931C11.3437 13.7444 9.91022 13.8295 8.85312 14.4775C7.84622 15.0742 7.53967 15.9447 7.53967 16.5589C7.53967 17.8211 8.73422 18.9982 11.2073 18.9982C14.1397 18.9982 15.692 17.3771 15.692 15.7745ZM12.0244 11.4251C10.5571 11.4251 9.89167 9.53129 9.89167 8.3891C9.89167 7.9451 9.97677 7.4858 10.2669 7.1269C10.5397 6.78545 11.0175 6.5629 11.4615 6.5629C12.8775 6.5629 13.6106 8.4742 13.6106 9.70145C13.6106 10.0091 13.5768 10.5545 13.184 10.9473C12.9113 11.22 12.4509 11.424 12.0244 11.4251ZM12.0418 18.2815C10.2167 18.2815 9.03963 17.412 9.03963 16.2011C9.03963 14.9902 10.1316 14.5811 10.5069 14.4447C11.2236 14.2058 12.1444 14.1709 12.2982 14.1709C12.4684 14.1709 12.5535 14.1709 12.6898 14.1884C13.9869 15.1091 14.5487 15.5695 14.5487 16.44C14.5487 17.4971 13.6793 18.2815 12.0418 18.2815Z" fill="white"/>
<path d="M24 12C24 5.37271 18.6273 0 12 0C5.37271 0 0 5.37271 0 12C0 18.6273 5.37271 24 12 24C18.6273 24 24 18.6273 24 12ZM1.0909 12C1.0909 5.9749 5.9749 1.0909 12 1.0909C18.0251 1.0909 22.9091 5.9749 22.9091 12C22.9091 18.0251 18.0251 22.9091 12 22.9091C5.9749 22.9091 1.0909 18.0251 1.0909 12Z" fill="white"/>
</svg>
