<svg width="24" height="24" viewBox="0 0 24 24" fill="none" xmlns="http://www.w3.org/2000/svg">
<path d="M16.4977 4.68652H7.4835C5.91499 4.68652 4.68665 5.91487 4.68665 7.48337V10.4881V16.5164C4.68665 18.0849 5.91499 19.3133 7.4835 19.3133H16.5166C18.0851 19.3133 19.3134 18.0849 19.3134 16.5164V10.4881V7.48337C19.3134 5.91487 18.0851 4.68652 16.5166 4.68652H16.4977ZM17.3103 6.33062H17.6126V6.65188V8.82511H15.137V6.33062H17.3103ZM9.90239 10.4881C10.3748 9.82668 11.1307 9.41093 12 9.41093C12.8693 9.41093 13.6252 9.84558 14.0977 10.4881C14.4 10.9227 14.589 11.433 14.589 11.9999C14.589 13.4361 13.4174 14.5889 12 14.5889C10.5638 14.5889 9.41106 13.4172 9.41106 11.9999C9.41106 11.433 9.58113 10.9227 9.90239 10.4881ZM17.9906 16.5164C17.9906 17.2912 17.2914 17.9905 16.5166 17.9905H7.4835C6.70869 17.9905 6.00948 17.2912 6.00948 16.5164V10.507H8.2772C8.08822 10.8849 7.97483 11.4708 7.97483 12.0188C7.97483 14.2487 9.78901 16.044 12 16.044C14.23 16.044 16.0252 14.2487 16.0252 12.0188C16.0252 11.4897 15.9118 10.8849 15.7229 10.507H17.9906V16.5164Z" fill="white"/>
<path d="M17.4803 22.8661H6.51968C3.59054 22.8661 1.13385 20.3905 1.13385 17.4802V6.51962C1.13385 3.59048 3.59054 1.13379 6.51968 1.13379H17.4425C17.5559 1.13379 17.6315 1.20938 17.6315 1.32277C17.6315 1.43615 17.5559 1.51174 17.4425 1.51174H6.51968C3.79842 1.51174 1.5118 3.79836 1.5118 6.51962V17.4802C1.5118 20.2015 3.81731 22.4881 6.51968 22.4881H17.4803C20.2016 22.4881 22.4882 20.1826 22.4882 17.4802V12.1889C22.4882 12.0755 22.5638 11.9999 22.6772 11.9999C22.7905 11.9999 22.8661 12.0755 22.8661 12.1889V17.4802C22.8661 20.4094 20.4094 22.8661 17.4803 22.8661Z" fill="white"/>
<path d="M21.1087 3.08025C21.052 3.08025 21.0142 3.06135 20.9764 3.02355C20.0504 2.09757 18.652 1.51174 17.3291 1.51174C17.2157 1.51174 17.1401 1.43615 17.1401 1.32277C17.1401 1.20938 17.2157 1.13379 17.3291 1.13379C18.7464 1.13379 20.2394 1.75741 21.2409 2.75899C21.3165 2.83458 21.3165 2.94796 21.2409 3.02355C21.222 3.06135 21.1653 3.08025 21.1087 3.08025Z" fill="black"/>
<path d="M12 14.7781C10.4693 14.7781 9.22205 13.5308 9.22205 12.0001C9.22205 11.4143 9.41102 10.8474 9.75118 10.3749C10.2803 9.65681 11.1118 9.22217 12 9.22217C12.8882 9.22217 13.7386 9.65681 14.2488 10.3749C14.589 10.8474 14.7779 11.4143 14.7779 12.0001C14.7779 13.5308 13.5307 14.7781 12 14.7781ZM12 9.60012C11.2252 9.60012 10.5071 9.97807 10.0535 10.6017C9.75118 11.0174 9.6 11.5088 9.6 12.0001C9.6 13.3229 10.6772 14.4001 12 14.4001C13.3228 14.4001 14.4 13.3229 14.4 12.0001C14.4 11.4899 14.2488 11.0174 13.9464 10.6017C13.4929 9.97807 12.7748 9.60012 12 9.60012Z" fill="black"/>
<path d="M16.5166 18.1793H7.48349C6.5953 18.1793 5.8205 17.4045 5.8205 16.5163V10.5068C5.8205 10.3935 5.89609 10.3179 6.00947 10.3179H8.27719C8.33388 10.3179 8.40947 10.3557 8.44727 10.4124C8.48506 10.4691 8.48506 10.5446 8.44727 10.6013C8.27719 10.9415 8.1638 11.4895 8.1638 12.0187C8.1638 14.1352 9.88349 15.8549 12 15.8549C14.1166 15.8549 15.8362 14.1352 15.8362 12.0187C15.8362 11.4895 15.7229 10.9226 15.5528 10.6013C15.515 10.5446 15.5339 10.4691 15.5528 10.4124C15.5906 10.3557 15.6473 10.3179 15.7229 10.3179H17.9906C18.104 10.3179 18.1795 10.3935 18.1795 10.5068V16.5352C18.1795 17.4045 17.4047 18.1793 16.5166 18.1793ZM6.19845 10.6958V16.5352C6.19845 17.2155 6.82207 17.8202 7.48349 17.8202H16.5166C17.1969 17.8202 17.8016 17.2155 17.8016 16.5352V10.6958H16.0063C16.1386 11.0738 16.2142 11.5462 16.2142 12.0187C16.2142 14.3431 14.3244 16.2328 12 16.2328C9.67561 16.2328 7.78585 14.3431 7.78585 12.0187C7.78585 11.5462 7.86144 11.0738 7.99372 10.6958H6.19845Z" fill="black"/>
<path d="M15.1559 9.01404C15.0992 9.01404 15.0614 8.99515 15.0236 8.95735C14.9858 8.91955 14.9669 8.88176 14.9669 8.82507V6.33058C14.9669 6.21719 15.0425 6.1416 15.1559 6.1416H17.6315C17.6882 6.1416 17.726 6.1605 17.7638 6.19829C17.8016 6.23609 17.8205 6.27389 17.8205 6.33058V8.82507C17.8205 8.93845 17.7449 9.01404 17.6315 9.01404H15.1559ZM15.3449 6.51955V8.63609H17.4425V6.51955H15.3449Z" fill="black"/>
<path d="M16.5166 19.5023H7.48351C5.82052 19.5023 4.49768 18.1983 4.49768 16.5165V7.48339C4.49768 5.82039 5.80162 4.49756 7.48351 4.49756H16.5166C18.1985 4.49756 19.5213 5.82039 19.5213 7.50228C19.5213 7.61567 19.4457 7.69126 19.3323 7.69126C19.2189 7.69126 19.1433 7.61567 19.1433 7.50228C19.1433 6.02827 17.9906 4.87551 16.5166 4.87551H7.48351C6.02839 4.87551 4.87563 6.00937 4.87563 7.48339V16.5354C4.87563 17.9905 6.00949 19.1432 7.48351 19.1432H16.5166C17.9717 19.1432 19.1245 18.0094 19.1245 16.5354V11.9999C19.1245 11.8865 19.2 11.8109 19.3134 11.8109C19.4268 11.8109 19.5024 11.8865 19.5024 11.9999V16.5165C19.5024 18.1983 18.1985 19.5023 16.5166 19.5023Z" fill="black"/>
</svg>
