<svg width="24" height="24" viewBox="0 0 24 24" fill="none" xmlns="http://www.w3.org/2000/svg">
<path d="M16.4975 4.68665H7.48337C5.91487 4.68665 4.68652 5.91499 4.68652 7.4835V10.4882V16.5166C4.68652 18.0851 5.91487 19.3134 7.48337 19.3134H16.5164C18.0849 19.3134 19.3133 18.0851 19.3133 16.5166V10.4882V7.4835C19.3133 5.91499 18.0849 4.68665 16.5164 4.68665H16.4975ZM17.3101 6.33074H17.6125V6.652V8.82523H15.1369V6.33074H17.3101ZM9.90227 10.4882C10.3747 9.8268 11.1306 9.41106 11.9999 9.41106C12.8692 9.41106 13.6251 9.8457 14.0975 10.4882C14.3999 10.9229 14.5889 11.4331 14.5889 12C14.5889 13.4363 13.4172 14.589 11.9999 14.589C10.5637 14.589 9.41093 13.4174 9.41093 12C9.41093 11.4331 9.58101 10.9229 9.90227 10.4882ZM17.9905 16.5166C17.9905 17.2914 17.2912 17.9906 16.5164 17.9906H7.48337C6.70857 17.9906 6.00936 17.2914 6.00936 16.5166V10.5071H8.27707C8.0881 10.8851 7.97471 11.4709 7.97471 12.0189C7.97471 14.2488 9.78889 16.0441 11.9999 16.0441C14.2298 16.0441 16.0251 14.2488 16.0251 12.0189C16.0251 11.4898 15.9117 10.8851 15.7227 10.5071H17.9905V16.5166Z" fill="white"/>
<path d="M17.4802 22.8661H6.51962C3.59048 22.8661 1.13379 20.3905 1.13379 17.4803V6.51968C1.13379 3.59054 3.59048 1.13385 6.51962 1.13385H17.4425C17.5558 1.13385 17.6314 1.20944 17.6314 1.32283C17.6314 1.43621 17.5558 1.5118 17.4425 1.5118H6.51962C3.79836 1.5118 1.51174 3.79842 1.51174 6.51968V17.4803C1.51174 20.2016 3.81725 22.4882 6.51962 22.4882H17.4802C20.2015 22.4882 22.4881 20.1827 22.4881 17.4803V12.189C22.4881 12.0756 22.5637 12 22.6771 12C22.7905 12 22.8661 12.0756 22.8661 12.189V17.4803C22.8661 20.4094 20.4094 22.8661 17.4802 22.8661Z" fill="#333333"/>
<path d="M21.1082 3.08031C21.0515 3.08031 21.0137 3.06141 20.9759 3.02361C20.0499 2.09763 18.6515 1.5118 17.3286 1.5118C17.2152 1.5118 17.1396 1.43621 17.1396 1.32283C17.1396 1.20944 17.2152 1.13385 17.3286 1.13385C18.746 1.13385 20.2389 1.75747 21.2405 2.75905C21.316 2.83464 21.316 2.94802 21.2405 3.02361C21.2216 3.06141 21.1649 3.08031 21.1082 3.08031Z" fill="black"/>
<path d="M11.9996 14.778C10.4689 14.778 9.22168 13.5307 9.22168 12C9.22168 11.4142 9.41066 10.8473 9.75081 10.3748C10.2799 9.65672 11.1114 9.22208 11.9996 9.22208C12.8878 9.22208 13.7382 9.65672 14.2484 10.3748C14.5886 10.8473 14.7776 11.4142 14.7776 12C14.7776 13.5307 13.5303 14.778 11.9996 14.778ZM11.9996 9.60003C11.2248 9.60003 10.5067 9.97798 10.0532 10.6016C9.75081 11.0173 9.59963 11.5087 9.59963 12C9.59963 13.3229 10.6768 14.4 11.9996 14.4C13.3225 14.4 14.3996 13.3229 14.3996 12C14.3996 11.4898 14.2484 11.0173 13.9461 10.6016C13.4925 9.97798 12.7744 9.60003 11.9996 9.60003Z" fill="black"/>
<path d="M16.5164 18.1795H7.4833C6.59512 18.1795 5.82031 17.4047 5.82031 16.5165V10.5071C5.82031 10.3937 5.8959 10.3181 6.00929 10.3181H8.27701C8.3337 10.3181 8.40929 10.3559 8.44708 10.4126C8.48488 10.4693 8.48488 10.5449 8.44708 10.6015C8.27701 10.9417 8.16362 11.4897 8.16362 12.0189C8.16362 14.1354 9.8833 15.8551 11.9998 15.8551C14.1164 15.8551 15.8361 14.1354 15.8361 12.0189C15.8361 11.4897 15.7227 10.9228 15.5526 10.6015C15.5148 10.5449 15.5337 10.4693 15.5526 10.4126C15.5904 10.3559 15.6471 10.3181 15.7227 10.3181H17.9904C18.1038 10.3181 18.1794 10.3937 18.1794 10.5071V16.5354C18.1794 17.4047 17.4046 18.1795 16.5164 18.1795ZM6.19827 10.696V16.5354C6.19827 17.2157 6.82189 17.8204 7.4833 17.8204H16.5164C17.1967 17.8204 17.8014 17.2157 17.8014 16.5354V10.696H16.0061C16.1384 11.074 16.214 11.5464 16.214 12.0189C16.214 14.3433 14.3242 16.233 11.9998 16.233C9.67543 16.233 7.78567 14.3433 7.78567 12.0189C7.78567 11.5464 7.86126 11.074 7.99354 10.696H6.19827Z" fill="black"/>
<path d="M15.1558 9.01416C15.0991 9.01416 15.0613 8.99527 15.0235 8.95747C14.9857 8.91968 14.9668 8.88188 14.9668 8.82519V6.3307C14.9668 6.21731 15.0424 6.14172 15.1558 6.14172H17.6314C17.6881 6.14172 17.7259 6.16062 17.7636 6.19842C17.8014 6.23621 17.8203 6.27401 17.8203 6.3307V8.82519C17.8203 8.93857 17.7448 9.01416 17.6314 9.01416H15.1558ZM15.3447 6.51968V8.63621H17.4424V6.51968H15.3447Z" fill="black"/>
<path d="M16.5169 19.5024H7.48387C5.82088 19.5024 4.49805 18.1985 4.49805 16.5166V7.48351C4.49805 5.82052 5.80198 4.49768 7.48387 4.49768H16.5169C18.1988 4.49768 19.5217 5.82052 19.5217 7.50241C19.5217 7.61579 19.4461 7.69138 19.3327 7.69138C19.2193 7.69138 19.1437 7.61579 19.1437 7.50241C19.1437 6.02839 17.991 4.87563 16.5169 4.87563H7.48387C6.02876 4.87563 4.876 6.00949 4.876 7.48351V16.5355C4.876 17.9906 6.00986 19.1434 7.48387 19.1434H16.5169C17.9721 19.1434 19.1248 18.0095 19.1248 16.5355V12C19.1248 11.8867 19.2004 11.8111 19.3138 11.8111C19.4272 11.8111 19.5028 11.8867 19.5028 12V16.5166C19.5028 18.1985 18.1988 19.5024 16.5169 19.5024Z" fill="black"/>
</svg>
