<svg width="24" height="24" viewBox="0 0 24 24" fill="none" xmlns="http://www.w3.org/2000/svg">
<path d="M24 12C24 5.37271 18.6273 0 12 0C5.37271 0 0 5.37271 0 12C0 18.6273 5.37271 24 12 24C18.6273 24 24 18.6273 24 12ZM1.0909 12C1.0909 5.9749 5.9749 1.0909 12 1.0909C18.0251 1.0909 22.9091 5.9749 22.9091 12C22.9091 18.0251 18.0251 22.9091 12 22.9091C5.9749 22.9091 1.0909 18.0251 1.0909 12Z" fill="#888888"/>
<path d="M12.4602 18.9262V12H14.7457L15.1068 9.70475H12.4602V8.55385C12.4602 7.95495 12.6566 7.38331 13.5162 7.38331H15.2344V5.09241H12.7951C10.7442 5.09241 10.1846 6.44292 10.1846 8.31495V9.7037H8.77734V12H10.1846V18.9262H12.4602Z" fill="#333333"/>
</svg>
