<svg width="24" height="24" viewBox="0 0 24 24" fill="none" xmlns="http://www.w3.org/2000/svg">
<path d="M17.1454 9.61413C17.1454 9.49303 17.1432 9.37303 17.1378 9.25413C17.656 8.86793 18.1054 8.38467 18.4611 7.83157C17.9854 8.04542 17.4749 8.18832 16.9381 8.24828C17.4858 7.91118 17.9058 7.37228 18.1043 6.72537C17.5916 7.03628 17.0243 7.25883 16.421 7.37447C15.9378 6.82463 15.2483 6.47447 14.4857 6.46137C13.0217 6.43737 11.8348 7.67447 11.8348 9.22464C11.8348 9.44499 11.8577 9.65883 11.9035 9.86499C9.69877 9.72319 7.74496 8.57554 6.43801 6.84537C6.21001 7.25992 6.0791 7.74428 6.0791 8.26357C6.0791 9.24542 6.54711 10.1181 7.25837 10.633C6.82311 10.6134 6.41511 10.4814 6.0573 10.2654C6.0573 10.2774 6.0573 10.2894 6.0573 10.3014C6.0573 11.6738 6.9715 12.8236 8.18457 13.0919C7.96202 13.1552 7.72747 13.1879 7.48637 13.1869C7.31511 13.1858 7.14927 13.1672 6.98782 13.1323C7.32492 14.257 8.30457 15.0785 9.46418 15.1058C8.55653 15.8585 7.41327 16.3079 6.17181 16.3047C5.95797 16.3047 5.74636 16.2905 5.53906 16.2643C6.71291 17.0694 8.10598 17.5385 9.60379 17.5385C14.4792 17.5396 17.1454 13.2959 17.1454 9.61413Z" fill="#333333"/>
<path d="M24 12C24 5.37271 18.6273 0 12 0C5.37271 0 0 5.37271 0 12C0 18.6273 5.37271 24 12 24C18.6273 24 24 18.6273 24 12ZM1.0909 12C1.0909 5.9749 5.9749 1.0909 12 1.0909C18.0251 1.0909 22.9091 5.9749 22.9091 12C22.9091 18.0251 18.0251 22.9091 12 22.9091C5.9749 22.9091 1.0909 18.0251 1.0909 12Z" fill="#888888"/>
</svg>
