<svg width="24" height="24" viewBox="0 0 24 24" fill="none" xmlns="http://www.w3.org/2000/svg">
<path d="M13.6924 15.7745C13.6924 14.5975 13.0105 14.0171 12.26 13.3855L11.6458 12.9076C11.4582 12.7549 11.2029 12.5498 11.2029 12.1745C11.2029 11.7993 11.4593 11.5604 11.6807 11.3389C12.3964 10.776 13.1131 10.1793 13.1131 8.9171C13.1131 7.62 12.2938 6.9382 11.9022 6.6142H12.9593L14.0502 6H10.5364C9.61564 6 8.45603 6.13639 7.48294 6.9382C6.74988 7.56875 6.39204 8.43929 6.39204 9.22365C6.39204 10.5535 7.41529 11.9018 9.22293 11.9018C9.39423 11.9018 9.58078 11.8844 9.76948 11.868C9.68438 12.0731 9.59929 12.2433 9.59929 12.5335C9.59929 13.0615 9.87203 13.3865 10.1109 13.6931C9.34403 13.7444 7.91058 13.8295 6.85349 14.4775C5.84659 15.0742 5.54004 15.9447 5.54004 16.5589C5.54004 17.8211 6.73459 18.9982 9.20768 18.9982C12.14 18.9982 13.6924 17.3771 13.6924 15.7745ZM10.0247 11.4251C8.55748 11.4251 7.89204 9.53129 7.89204 8.3891C7.89204 7.9451 7.97713 7.4858 8.26729 7.1269C8.54003 6.78545 9.01784 6.5629 9.46184 6.5629C10.8778 6.5629 11.6109 8.4742 11.6109 9.70145C11.6109 10.0091 11.5771 10.5545 11.1844 10.9473C10.9116 11.22 10.4513 11.424 10.0247 11.4251ZM10.0422 18.2815C8.21709 18.2815 7.04 17.412 7.04 16.2011C7.04 14.9902 8.132 14.5811 8.50729 14.4447C9.22399 14.2058 10.1447 14.1709 10.2985 14.1709C10.4687 14.1709 10.5538 14.1709 10.6902 14.1884C11.9873 15.1091 12.5491 15.5695 12.5491 16.44C12.5491 17.4971 11.6796 18.2815 10.0422 18.2815Z" fill="#333333"/>
<path d="M13.8457 12.4615H15.6926V14.3073H16.6155V12.4615H18.4614V11.5386H16.6155V9.69275H15.6926V11.5386H13.8457V12.4615Z" fill="#333333"/>
<path d="M24 12C24 5.37271 18.6273 0 12 0C5.37271 0 0 5.37271 0 12C0 18.6273 5.37271 24 12 24C18.6273 24 24 18.6273 24 12ZM1.0909 12C1.0909 5.9749 5.9749 1.0909 12 1.0909C18.0251 1.0909 22.9091 5.9749 22.9091 12C22.9091 18.0251 18.0251 22.9091 12 22.9091C5.9749 22.9091 1.0909 18.0251 1.0909 12Z" fill="#888888"/>
</svg>
