<svg width="90" height="14" viewBox="0 0 90 14" fill="none" xmlns="http://www.w3.org/2000/svg">
<g clip-path="url(#clip0)">
<path d="M3.03418 13.6695C2.9786 13.6695 2.92302 13.6535 2.87631 13.6216C2.79361 13.5655 2.75226 13.4705 2.76971 13.3766L3.59963 8.86134L0.0847655 5.664C0.0117349 5.59734 -0.0145776 5.49785 0.0168363 5.40739C0.0485187 5.31667 0.132558 5.25051 0.23378 5.23673L5.09085 4.57792L7.26324 0.46991C7.30835 0.384207 7.40179 0.330078 7.50382 0.330078C7.60611 0.330078 7.69955 0.384207 7.74439 0.46991L9.91651 4.57792L14.7739 5.23673C14.8751 5.25051 14.9588 5.31642 14.9908 5.40739C15.0222 5.49785 14.9962 5.59759 14.9229 5.664L11.408 8.86184L12.2376 13.3768C12.2548 13.4708 12.2135 13.5658 12.1311 13.6219C12.0484 13.6785 11.9385 13.6858 11.8481 13.6409L7.50382 11.5094L3.15903 13.6409C3.11983 13.66 3.07687 13.6695 3.03418 13.6695ZM0.84917 5.65949L4.0754 8.59471C4.1385 8.65209 4.1675 8.73529 4.15246 8.81648L3.39074 12.9608L7.37896 11.0042C7.4571 10.9656 7.55026 10.9656 7.62893 11.0042L11.6166 12.9608L10.8552 8.81648C10.8401 8.73529 10.8691 8.65234 10.9322 8.59471L14.1585 5.65949L9.7001 5.0548C9.61257 5.04302 9.53713 4.99165 9.49793 4.91772L7.50382 1.14727L5.5097 4.91797C5.4705 4.9919 5.39506 5.04327 5.30753 5.05505L0.84917 5.65949Z" fill="black"/>
</g>
<g clip-path="url(#clip1)">
<path d="M21.7842 13.6695C21.7286 13.6695 21.673 13.6535 21.6263 13.6216C21.5436 13.5655 21.5023 13.4705 21.5197 13.3766L22.3496 8.86134L18.8348 5.664C18.7617 5.59734 18.7354 5.49785 18.7668 5.40739C18.7985 5.31667 18.8826 5.25051 18.9838 5.23673L23.8409 4.57792L26.0132 0.46991C26.0584 0.384207 26.1518 0.330078 26.2538 0.330078C26.3561 0.330078 26.4495 0.384207 26.4944 0.46991L28.6665 4.57792L33.5239 5.23673C33.6251 5.25051 33.7088 5.31642 33.7408 5.40739C33.7722 5.49785 33.7462 5.59759 33.6729 5.664L30.158 8.86184L30.9876 13.3768C31.0048 13.4708 30.9635 13.5658 30.8811 13.6219C30.7984 13.6785 30.6885 13.6858 30.5981 13.6409L26.2538 11.5094L21.909 13.6409C21.8698 13.66 21.8269 13.6695 21.7842 13.6695ZM19.5992 5.65949L22.8254 8.59471C22.8885 8.65209 22.9175 8.73529 22.9025 8.81648L22.1407 12.9608L26.129 11.0042C26.2071 10.9656 26.3003 10.9656 26.3789 11.0042L30.3666 12.9608L29.6052 8.81648C29.5901 8.73529 29.6191 8.65234 29.6822 8.59471L32.9085 5.65949L28.4501 5.0548C28.3626 5.04302 28.2871 4.99165 28.2479 4.91772L26.2538 1.14727L24.2597 4.91797C24.2205 4.9919 24.1451 5.04327 24.0575 5.05505L19.5992 5.65949Z" fill="black"/>
</g>
<g clip-path="url(#clip2)">
<path d="M40.5342 13.6695C40.4786 13.6695 40.423 13.6535 40.3763 13.6216C40.2936 13.5655 40.2523 13.4705 40.2697 13.3766L41.0996 8.86134L37.5848 5.664C37.5117 5.59734 37.4854 5.49785 37.5168 5.40739C37.5485 5.31667 37.6326 5.25051 37.7338 5.23673L42.5909 4.57792L44.7632 0.46991C44.8084 0.384207 44.9018 0.330078 45.0038 0.330078C45.1061 0.330078 45.1995 0.384207 45.2444 0.46991L47.4165 4.57792L52.2739 5.23673C52.3751 5.25051 52.4588 5.31642 52.4908 5.40739C52.5222 5.49785 52.4962 5.59759 52.4229 5.664L48.908 8.86184L49.7376 13.3768C49.7548 13.4708 49.7135 13.5658 49.6311 13.6219C49.5484 13.6785 49.4385 13.6858 49.3481 13.6409L45.0038 11.5094L40.659 13.6409C40.6198 13.66 40.5769 13.6695 40.5342 13.6695ZM38.3492 5.65949L41.5754 8.59471C41.6385 8.65209 41.6675 8.73529 41.6525 8.81648L40.8907 12.9608L44.879 11.0042C44.9571 10.9656 45.0503 10.9656 45.1289 11.0042L49.1166 12.9608L48.3552 8.81648C48.3401 8.73529 48.3691 8.65234 48.4322 8.59471L51.6585 5.65949L47.2001 5.0548C47.1126 5.04302 47.0371 4.99165 46.9979 4.91772L45.0038 1.14727L43.0097 4.91797C42.9705 4.9919 42.8951 5.04327 42.8075 5.05505L38.3492 5.65949Z" fill="black"/>
</g>
<g clip-path="url(#clip3)">
<path d="M59.2842 13.6695C59.2286 13.6695 59.173 13.6535 59.1263 13.6216C59.0436 13.5655 59.0023 13.4705 59.0197 13.3766L59.8496 8.86134L56.3348 5.664C56.2617 5.59734 56.2354 5.49785 56.2668 5.40739C56.2985 5.31667 56.3826 5.25051 56.4838 5.23673L61.3409 4.57792L63.5132 0.46991C63.5584 0.384207 63.6518 0.330078 63.7538 0.330078C63.8561 0.330078 63.9495 0.384207 63.9944 0.46991L66.1665 4.57792L71.0239 5.23673C71.1251 5.25051 71.2088 5.31642 71.2408 5.40739C71.2722 5.49785 71.2462 5.59759 71.1729 5.664L67.658 8.86184L68.4876 13.3768C68.5048 13.4708 68.4635 13.5658 68.3811 13.6219C68.2984 13.6785 68.1885 13.6858 68.0981 13.6409L63.7538 11.5094L59.409 13.6409C59.3698 13.66 59.3269 13.6695 59.2842 13.6695ZM57.0992 5.65949L60.3254 8.59471C60.3885 8.65209 60.4175 8.73529 60.4025 8.81648L59.6407 12.9608L63.629 11.0042C63.7071 10.9656 63.8003 10.9656 63.8789 11.0042L67.8666 12.9608L67.1052 8.81648C67.0901 8.73529 67.1191 8.65234 67.1822 8.59471L70.4085 5.65949L65.9501 5.0548C65.8626 5.04302 65.7871 4.99165 65.7479 4.91772L63.7538 1.14727L61.7597 4.91797C61.7205 4.9919 61.6451 5.04327 61.5575 5.05505L57.0992 5.65949Z" fill="black"/>
</g>
<g clip-path="url(#clip4)">
<path d="M78.0342 13.6695C77.9786 13.6695 77.923 13.6535 77.8763 13.6216C77.7936 13.5655 77.7523 13.4705 77.7697 13.3766L78.5996 8.86134L75.0848 5.664C75.0117 5.59734 74.9854 5.49785 75.0168 5.40739C75.0485 5.31667 75.1326 5.25051 75.2338 5.23673L80.0909 4.57792L82.2632 0.46991C82.3084 0.384207 82.4018 0.330078 82.5038 0.330078C82.6061 0.330078 82.6995 0.384207 82.7444 0.46991L84.9165 4.57792L89.7739 5.23673C89.8751 5.25051 89.9588 5.31642 89.9908 5.40739C90.0222 5.49785 89.9962 5.59759 89.9229 5.664L86.408 8.86184L87.2376 13.3768C87.2548 13.4708 87.2135 13.5658 87.1311 13.6219C87.0484 13.6785 86.9385 13.6858 86.8481 13.6409L82.5038 11.5094L78.159 13.6409C78.1198 13.66 78.0769 13.6695 78.0342 13.6695ZM75.8492 5.65949L79.0754 8.59471C79.1385 8.65209 79.1675 8.73529 79.1525 8.81648L78.3907 12.9608L82.379 11.0042C82.4571 10.9656 82.5503 10.9656 82.6289 11.0042L86.6166 12.9608L85.8552 8.81648C85.8401 8.73529 85.8691 8.65234 85.9322 8.59471L89.1585 5.65949L84.7001 5.0548C84.6126 5.04302 84.5371 4.99165 84.4979 4.91772L82.5038 1.14727L80.5097 4.91797C80.4705 4.9919 80.3951 5.04327 80.3075 5.05505L75.8492 5.65949Z" fill="black"/>
</g>
<defs>
<clipPath id="clip0">
<rect width="15" height="14" fill="white"/>
</clipPath>
<clipPath id="clip1">
<rect x="18.75" width="15" height="14" fill="white"/>
</clipPath>
<clipPath id="clip2">
<rect x="37.5" width="15" height="14" fill="white"/>
</clipPath>
<clipPath id="clip3">
<rect x="56.25" width="15" height="14" fill="white"/>
</clipPath>
<clipPath id="clip4">
<rect x="75" width="15" height="14" fill="white"/>
</clipPath>
</defs>
</svg>
