<svg width="24" height="23" viewBox="0 0 24 23" fill="none" xmlns="http://www.w3.org/2000/svg">
<path d="M17.1459 8.99502C17.1459 8.88172 17.1437 8.76944 17.1382 8.6582C17.6564 8.29686 18.1059 7.84472 18.4615 7.32723C17.9859 7.5273 17.4753 7.66101 16.9386 7.71711C17.4862 7.40171 17.9062 6.8975 18.1048 6.29225C17.5921 6.58313 17.0248 6.79136 16.4215 6.89956C15.9382 6.38511 15.2488 6.0575 14.4862 6.04524C13.0222 6.02279 11.8353 7.18024 11.8353 8.6306C11.8353 8.83677 11.8582 9.03685 11.904 9.22973C9.69926 9.09706 7.74545 8.02329 6.4385 6.40452C6.2105 6.79238 6.07959 7.24555 6.07959 7.73142C6.07959 8.65005 6.5476 9.46657 7.25885 9.94833C6.8236 9.92998 6.41559 9.80648 6.05779 9.60435C6.05779 9.61558 6.05779 9.6268 6.05779 9.63803C6.05779 10.9221 6.97199 11.9979 8.18506 12.2489C7.96251 12.3081 7.72796 12.3387 7.48686 12.3378C7.3156 12.3367 7.14976 12.3194 6.9883 12.2867C7.3254 13.339 8.30506 14.1076 9.46467 14.1331C8.55702 14.8373 7.41376 15.2579 6.1723 15.2548C5.95845 15.2548 5.74685 15.2416 5.53955 15.2171C6.7134 15.9703 8.10647 16.4092 9.60428 16.4092C14.4796 16.4102 17.1459 12.4398 17.1459 8.99502Z" fill="white"/>
<path d="M24 11.2273C24 5.02675 18.6273 0 12 0C5.37271 0 0 5.02675 0 11.2273C0 17.4278 5.37271 22.4546 12 22.4546C18.6273 22.4546 24 17.4278 24 11.2273ZM1.0909 11.2273C1.0909 5.59017 5.9749 1.02066 12 1.02066C18.0251 1.02066 22.9091 5.59017 22.9091 11.2273C22.9091 16.8644 18.0251 21.4339 12 21.4339C5.9749 21.4339 1.0909 16.8644 1.0909 11.2273Z" fill="white"/>
</svg>
