<svg width="24" height="24" viewBox="0 0 24 24" fill="none" xmlns="http://www.w3.org/2000/svg">
<path d="M21.9999 0H2.00001C0.897467 0 0 1.19593 0 2.66668V18.6666C0 20.1373 0.897467 21.3333 2.00001 21.3333H22C23.1025 21.3333 24 20.1374 24 18.6666V2.66668C24 1.19593 23.1025 0 21.9999 0ZM23 18.6666C23 19.4016 22.5517 19.9999 22 19.9999H2.00001C1.44825 19.9999 1.00003 19.4016 1.00003 18.6666V2.66668C1.00003 1.93168 1.44829 1.33337 2.00001 1.33337H22C22.5518 1.33337 23 1.93168 23 2.66668V18.6666Z" fill="white"/>
<path d="M17.5 22.6665H6.50002C6.22364 22.6665 6 22.9647 6 23.3332C6 23.7017 6.22364 23.9999 6.50002 23.9999H17.5C17.7764 23.9999 18 23.7017 18 23.3332C18 22.9647 17.7763 22.6665 17.5 22.6665Z" fill="white"/>
<path d="M15.752 10.0905L9.75197 5.42383C9.59766 5.30533 9.40725 5.3034 9.25097 5.4219C9.09567 5.54102 9 5.76108 9 6.00002V15.3333C9 15.5722 9.09572 15.7923 9.25097 15.9114C9.32812 15.9707 9.41405 16 9.50002 16C9.58692 16 9.67383 15.9694 9.75197 15.9095L15.752 11.2428C15.9053 11.123 16 10.9036 16 10.6666C16 10.4297 15.9053 10.2103 15.752 10.0905ZM9.99998 14.1725V7.16083L14.5078 10.6667L9.99998 14.1725Z" fill="white"/>
</svg>
